<?xml version="1.0" encoding="UTF-8" standalone="no"?>
<!-- Created with Inkscape (http://www.inkscape.org/) -->

<svg
   xmlns:dc="http://purl.org/dc/elements/1.1/"
   xmlns:cc="http://creativecommons.org/ns#"
   xmlns:rdf="http://www.w3.org/1999/02/22-rdf-syntax-ns#"
   xmlns:svg="http://www.w3.org/2000/svg"
   xmlns="http://www.w3.org/2000/svg"
   xmlns:sodipodi="http://sodipodi.sourceforge.net/DTD/sodipodi-0.dtd"
   xmlns:inkscape="http://www.inkscape.org/namespaces/inkscape"
   width="1113.9944"
   height="250"
   viewBox="0 0 1113.9944 249.99999"
   id="svg2"
   version="1.1"
   inkscape:version="0.48.4 r9939"
   sodipodi:docname="CynaraIconTextRight.svg"
   inkscape:export-filename="D:\Development\Cynara\Pictures\Cynara.png"
   inkscape:export-xdpi="90"
   inkscape:export-ydpi="90">
  <title
     id="title4194">Cynara</title>
  <sodipodi:namedview
     id="base"
     pagecolor="#ffffff"
     bordercolor="#666666"
     borderopacity="1.0"
     inkscape:pageopacity="0.0"
     inkscape:pageshadow="2"
     inkscape:zoom="1.0560002"
     inkscape:cx="410.49837"
     inkscape:cy="114.13648"
     inkscape:document-units="px"
     inkscape:current-layer="layer1"
     showgrid="true"
     inkscape:window-width="1366"
     inkscape:window-height="711"
     inkscape:window-x="0"
     inkscape:window-y="22"
     inkscape:window-maximized="1"
     inkscape:object-paths="false"
     inkscape:showpageshadow="false"
     fit-margin-top="0"
     fit-margin-left="0"
     fit-margin-right="0"
     fit-margin-bottom="0">
    <inkscape:grid
       id="grid4136"
       type="xygrid"
       empspacing="10"
       snapvisiblegridlinesonly="true"
       originx="-5.9785158px"
       originy="-0.00089115223px"
       visible="true"
       enabled="true" />
  </sodipodi:namedview>
  <defs
     id="defs4" />
  <metadata
     id="metadata7">
    <rdf:RDF>
      <cc:Work
         rdf:about="">
        <dc:format>image/svg+xml</dc:format>
        <dc:type
           rdf:resource="http://purl.org/dc/dcmitype/StillImage" />
        <dc:title>Cynara</dc:title>
        <dc:date>29/02/2016</dc:date>
        <dc:creator>
          <cc:Agent>
            <dc:title>Mathias Spiessens</dc:title>
          </cc:Agent>
        </dc:creator>
        <dc:rights>
          <cc:Agent>
            <dc:title>Cynara Krewe</dc:title>
          </cc:Agent>
        </dc:rights>
        <dc:publisher>
          <cc:Agent>
            <dc:title>Cynara Krewe</dc:title>
          </cc:Agent>
        </dc:publisher>
        <dc:contributor>
          <cc:Agent>
            <dc:title>Sander van Schaick</dc:title>
          </cc:Agent>
        </dc:contributor>
      </cc:Work>
    </rdf:RDF>
  </metadata>
  <g
     id="layer1"
     inkscape:groupmode="layer"
     inkscape:label="Layer 1"
     transform="translate(-5.9785156,-802.36134)">
    <path
       style="fill:#000000;fill-opacity:0.8627451;stroke:none"
       d="m 53.486328,802.36133 c -26.318732,0 -47.5078124,21.18908 -47.5078124,47.50781 l 0,154.98636 c 0,26.3187 21.1890804,47.5058 47.5078124,47.5058 l 154.986332,0 c 26.31873,0 47.50586,-21.1871 47.50586,-47.5058 l 0,-154.98636 c 0,-26.31873 -21.18713,-47.50781 -47.50586,-47.50781 l -154.986332,0 z m 77.404292,38.375 c 2.58616,0 24.75728,14.37603 33.88086,21.96875 2.78654,2.31898 3.13706,2.85295 5.04102,7.72265 1.1251,2.87764 2.04492,5.47398 2.04492,5.76758 0,0.29361 -2.75625,1.91364 -6.125,3.60157 -12.83446,6.43079 -30.4487,16.86651 -32.36523,19.17578 -0.36462,0.43935 -1.03125,1.93246 -1.48242,3.3164 l -0.82032,2.51563 -0.64648,-2.51953 c -0.73695,-2.87541 -2.17678,-4.3468 -7.76367,-7.93164 -4.09053,-2.6247 -17.16369,-9.96095 -26.394534,-14.81055 l -6.347657,-3.33399 0.65625,-1.86523 c 2.632656,-7.46174 3.793649,-9.46378 6.91211,-11.92773 10.636281,-8.40391 31.095441,-21.67969 33.410151,-21.67969 z m 91.57813,2.57226 c 0.0724,-0.0117 0.1181,-0.0108 0.13477,0.006 0.1045,0.10449 -0.94116,1.98689 -2.32227,4.18164 -3.40335,5.40836 -6.92383,12.63258 -6.92383,14.20703 0,0.70935 0.74916,3.2015 1.66602,5.53711 2.08968,5.32321 5.99627,17.00283 5.75976,17.22071 -0.0973,0.0896 -2.28664,1.44047 -4.86718,3 -14.56876,8.80452 -17.54731,11.71281 -17.55664,17.15039 -0.003,1.64303 -0.98738,2.36874 -1.01758,0.75 -0.009,-0.48125 -0.45708,-2.1125 -0.99414,-3.625 -0.53706,-1.5125 -1.78081,-7.55827 -2.76368,-13.43555 -0.98287,-5.87728 -2.23855,-11.8945 -2.79101,-13.37109 -1.55849,-4.16543 -3.70288,-5.07835 -7.94531,-3.38086 -1.11697,0.44692 -2.11796,0.72579 -2.22266,0.62109 -0.10469,-0.10469 -0.0638,-2.0225 0.0898,-4.26367 l 0.2793,-4.07617 4.30664,-2.56836 c 6.6479,-3.96388 34.92238,-17.59018 37.16797,-17.95313 z m -182.875,0.1211 c 1.815963,0.19794 23.872135,10.60214 33.648438,15.90429 7.952436,4.31299 8.115234,4.49631 8.115234,9.12891 0,2.07563 -0.08553,3.77344 -0.189453,3.77344 -0.103916,0 -0.997123,-0.3375 -1.984375,-0.75 -4.144634,-1.73174 -6.648487,-0.40503 -8.033203,4.25781 -0.429273,1.44552 -1.477078,6.92939 -2.330079,12.18555 -0.852998,5.25616 -2.088584,11.35664 -2.74414,13.55664 -0.655556,2.2 -1.383081,4.7875 -1.617188,5.75 -0.391663,1.61027 -0.452458,1.4582 -0.769531,-1.90625 -0.189523,-2.01102 -0.663398,-4.41975 -1.052734,-5.35156 -0.840947,-2.01267 -6.029607,-5.99919 -15.113281,-11.61329 -4.106922,-2.53826 -6.166016,-4.10578 -6.166016,-4.6914 0,-0.48366 1.492551,-4.99813 3.316406,-10.03321 1.823854,-5.03508 3.420249,-10.10791 3.548828,-11.27343 0.280523,-2.54282 -1.328714,-6.28161 -5.941406,-13.79297 -1.658941,-2.70144 -2.919326,-5.01036 -2.798828,-5.13086 0.01537,-0.0154 0.05275,-0.0201 0.111328,-0.0137 z m 145.83203,32.86523 c 0.0956,-0.009 0.15826,0.002 0.1875,0.0312 0.27692,0.27692 2.11683,10.09887 3.02734,16.16016 0.45441,3.025 1.35249,7.1875 1.99415,9.25 0.64165,2.0625 1.63508,6.1125 2.20898,9 1.14033,5.73745 3.75084,23.6404 4.27344,29.30859 l 0.32812,3.55664 -4.68359,2.52539 c -6.2527,3.37074 -7.14574,4.32872 -7.92188,8.49805 -0.99802,5.36124 -1.09268,5.40484 -2.66601,1.19727 -1.11949,-2.99388 -1.9973,-4.3874 -4,-6.34766 -4.74559,-4.64504 -29.74642,-20.48809 -39.43164,-24.98828 -3.00678,-1.39708 -4.39078,-2.3215 -4.58985,-3.06641 -0.27883,-1.04332 1.01064,-9.14607 2.50782,-15.75586 0.72285,-3.19129 0.86491,-3.40012 3.59961,-5.30664 8.28885,-5.77865 42.20382,-23.79297 45.16601,-24.0625 z m -108.255858,0.0859 c 0.6276,-0.2092 21.411036,10.24954 30.937498,15.56836 3.85,2.14953 9.16815,5.33757 11.81836,7.08594 l 4.81836,3.17968 0.83984,3.42383 c 0.46151,1.88323 1.35034,6.3565 1.97657,9.93945 l 1.13867,6.51368 -1.79492,0.61718 c -6.27513,2.15541 -34.328015,19.29504 -42.458988,25.94141 -2.264835,1.85131 -3.865845,4.55373 -5.308593,8.96094 -0.472627,1.44375 -0.914375,2.625 -0.980469,2.625 -0.0661,0 -0.382963,-1.69566 -0.705078,-3.76758 -0.933551,-6.00483 -1.751748,-7.01467 -8.398438,-10.38281 l -2.539062,-1.28711 -0.314453,-5.88281 c -0.261543,-4.88032 -0.09913,-7.33618 0.955078,-14.40625 1.562436,-10.47848 3.488938,-20.14074 4.5,-22.56055 0.417442,-0.99908 1.531898,-6.463 2.476562,-12.14063 1.905526,-11.45261 2.296502,-13.18021 3.039063,-13.42773 z m 161.902348,3.85547 c 0.14229,0 -1.03743,1.85625 -2.6211,4.125 -4.40045,6.30404 -7.47791,11.42139 -8.35351,13.89062 -0.64102,1.8077 -0.69525,2.80722 -0.28516,5.23438 0.55311,3.27371 1.9347,18.10774 2.15625,23.15039 l 0.13867,3.15234 -2.25,0.95899 c -1.2375,0.52797 -6.525,2.74156 -11.75,4.91992 -5.225,2.17837 -10.33083,4.32112 -11.3457,4.75976 l -1.8457,0.79688 -0.4043,-2.36914 c -0.9513,-5.56821 0.52673,-34.08833 1.90234,-36.70899 0.64197,-1.22302 7.63672,-6.12203 15.86524,-11.11132 7.68954,-4.66247 18.36879,-10.79883 18.79297,-10.79883 z m -215.378911,0.62695 c 2.305714,0.33966 28.656032,16.43535 32.732422,20.05664 1.371624,1.21849 1.423209,1.49874 2.695313,14.56641 0.209536,2.15246 1.729434,24.82736 1.734375,25.875 0.0032,0.67959 -1.189254,0.30113 -6.248047,-1.98438 -2.75,-1.24242 -8.820513,-3.81597 -13.490234,-5.71679 -4.66972,-1.90082 -8.681592,-3.64449 -8.914063,-3.87696 -0.440656,-0.44066 0.101187,-8.59252 1.486328,-22.39453 l 0.8125,-8.09765 -1.416015,-2.90235 c -0.778486,-1.5963 -3.292098,-5.69069 -5.585938,-9.09761 -2.293839,-3.40692 -4.072736,-6.2925 -3.953125,-6.41211 0.02278,-0.0228 0.07211,-0.0266 0.146484,-0.0156 z m 107.044921,45.81055 2.94922,1.24023 c 8.10188,3.41004 37.48332,21.61051 41.00781,25.40235 1.50541,1.6196 2.74565,4.98755 5.33985,14.49804 3.77034,13.82231 6.31604,26.5214 6.32031,31.5293 0.001,1.81769 0.22304,2.47599 0.96875,2.87509 1.47338,0.7884 2.7824,0.623 3.7793,-0.4786 1.2593,-1.3915 0.79958,-6.60533 -1.58008,-17.91993 -1.02202,-4.85943 -1.80986,-9.84648 -1.75196,-11.08398 0.0579,-1.2375 0.67296,-5.9625 1.36719,-10.5 1.06645,-6.97045 1.43321,-8.39861 2.36524,-9.20508 1.62063,-1.40229 14.65119,-7.54888 26.10351,-12.31445 12.34679,-5.13778 28.43434,-11.46215 28.63867,-11.25782 0.0835,0.0835 -2.35035,3.27411 -5.41015,7.08985 -3.05979,3.81574 -6.36335,8.2875 -7.33985,9.9375 -1.74549,2.94938 -1.77638,3.10125 -1.875,9 -0.36436,21.79229 -10.85517,45.46501 -22.83789,51.53711 -5.64127,2.8587 -19.17845,4.7764 -43.92578,6.2246 -12.15237,0.7111 -52.03188,1.0028 -64.999998,0.4747 -19.86192,-0.8089 -37.718462,-2.8253 -43.722656,-4.9356 -9.709576,-3.4127 -17.84737,-15.07655 -22.542969,-32.31253 -2.119038,-7.77827 -2.813019,-12.16653 -3.160156,-20.00195 l -0.332032,-7.51172 -2.83789,-4.23828 c -1.56036,-2.33072 -4.855104,-6.71133 -7.322266,-9.73633 -2.467162,-3.025 -4.432919,-5.55562 -4.369141,-5.62305 0.176848,-0.18697 20.453236,7.81511 29.996094,11.83789 9.763597,4.11582 19.402632,8.58254 23.128906,10.71875 l 2.589844,1.48438 0.769532,4.29101 c 1.659599,9.25178 3.743221,27.0087 4.582031,39.04102 0.182125,2.6125 0.55965,5.03121 0.83789,5.37501 0.88959,1.099 3.2794,0.7449 4.171875,-0.6172 0.7287,-1.1122 0.75205,-2.03384 0.22461,-8.875 -0.32371,-4.19869 -0.86436,-10.04647 -1.203125,-12.99609 l -0.617188,-5.36328 2.105469,-7.38672 c 3.45902,-12.13932 3.731383,-12.6956 7.601562,-15.55274 9.235161,-6.81781 26.618598,-17.56904 35.416018,-21.90429 l 5.56445,-2.74219 z"
       id="rect4145"
       inkscape:connector-curvature="0" />
    <g
       style="stroke-width:0.5;stroke-miterlimit:4;stroke-dasharray:none"
       transform="matrix(10,0,0,10,119.99996,-9585.9161)"
       id="g4169">
      <g
         id="g4223">
        <g
           id="g4228">
          <g
             id="g4271" />
        </g>
      </g>
    </g>
    <g
       transform="translate(120,-94)"
       id="g4214" />
    <g
       transform="matrix(0.79119569,0,0,0.79008996,279.02316,525.13785)"
       style="font-size:352.75326538px;font-style:normal;font-weight:normal;line-height:125%;letter-spacing:0px;word-spacing:0px;fill:#000000;fill-opacity:0.8627451;stroke:none;font-family:Sans"
       id="flowRoot2990">
      <path
         d="m 129.4885,606.26921 c -17.16744,-1e-5 -32.806152,-2.82203 -46.91618,-8.46608 C 68.462115,592.15909 56.350931,583.92818 46.238733,573.1104 36.126431,562.29267 28.248283,549.00565 22.604264,533.24928 c -5.408906,-15.9914 -8.113345,-34.21696 -8.113325,-54.67675 -2e-5,-20.45955 3.057172,-38.56753 9.171585,-54.32401 6.349523,-15.99129 14.815593,-29.3959 25.398235,-40.21387 10.582533,-10.81754 22.928885,-19.04844 37.039093,-24.69273 14.110028,-5.6438 29.160818,-8.46583 45.152418,-8.46608 10.11211,2.5e-4 19.1661,0.70576 27.162,2.11652 8.23074,1.41126 15.2858,3.05744 21.1652,4.93855 6.1142,1.88159 11.05274,3.76294 14.81563,5.64405 3.7625,1.88159 6.34936,3.2926 7.76058,4.23304 l -9.87709,28.22026 c -2.11672,-1.41081 -5.17391,-2.9394 -9.17159,-4.58579 -3.99806,-1.64597 -8.58384,-3.29215 -13.75738,-4.93855 -4.93871,-1.64596 -10.46518,-2.93939 -16.5794,-3.88028 -5.87937,-1.17563 -11.87617,-1.76355 -17.99042,-1.76377 -12.93441,2.2e-4 -24.57526,2.23432 -34.92257,6.70231 -10.347525,4.46842 -19.166348,10.93556 -26.456495,19.40143 -7.290307,8.46627 -12.934353,18.81369 -16.932157,31.04229 -3.76276,11.99376 -5.644109,25.51596 -5.644052,40.56663 -5.7e-5,14.58057 1.646123,27.8676 4.938545,39.86111 3.527468,11.99369 8.701177,22.3411 15.521144,31.04229 6.819813,8.46612 15.285882,15.05084 25.398235,19.75418 10.34732,4.70341 22.34092,7.05509 35.98083,7.05507 15.75616,2e-5 28.80802,-1.64616 39.15562,-4.93855 10.34724,-3.29233 18.1078,-6.23193 23.28171,-8.81883 l 8.81883,28.22026 c -1.64639,1.17586 -4.58599,2.70445 -8.81883,4.5858 -4.23323,1.64618 -9.52453,3.29236 -15.8739,4.93854 -6.34973,1.64618 -13.75754,3.05719 -22.22345,4.23304 -8.46623,1.17584 -17.63781,1.76376 -27.51476,1.76377"
         style="font-variant:normal;font-stretch:normal;fill:#000000;font-family:Ubuntu;-inkscape-font-specification:Ubuntu"
         id="path2995"
         inkscape:connector-curvature="0" />
      <path
         d="m 213.62567,635.19498 c 2.58685,1.1758 5.87921,2.23406 9.87709,3.17477 4.23302,1.17581 8.34847,1.76373 12.34636,1.76377 12.93425,-4e-5 23.0465,-2.93965 30.33678,-8.81883 7.29017,-5.64408 13.87489,-14.93324 19.75419,-27.86751 -14.8157,-28.22023 -28.69065,-58.08665 -41.62489,-89.59933 -12.69914,-31.74767 -23.28173,-63.84819 -31.74779,-96.30164 l 35.27532,0 c 2.58682,10.58277 5.64401,21.98845 9.17159,34.21707 3.76265,12.22891 7.8781,24.81043 12.34636,37.7446 4.46814,12.93438 9.2891,25.86865 14.46289,38.80286 5.17363,12.93434 10.58251,25.39828 16.22665,37.39184 8.93631,-24.69267 16.69688,-49.1502 23.28171,-73.37268 6.58461,-24.22226 12.81658,-49.15013 18.69593,-74.78369 l 33.86431,0 c -8.46624,34.56997 -17.87298,67.84633 -28.22026,99.82917 -10.34756,31.74785 -21.51807,61.49668 -33.51156,89.24658 -4.70348,10.58258 -9.64202,19.63657 -14.81564,27.162 -4.93863,7.76053 -10.46509,14.11009 -16.5794,19.04868 -6.11446,4.93849 -13.05194,8.5836 -20.81245,10.93535 -7.52545,2.35162 -16.1091,3.52747 -25.75098,3.52753 -2.58689,-6e-5 -5.29133,-0.23523 -8.11333,-0.7055 -2.82204,-0.23524 -5.64407,-0.70558 -8.46608,-1.41102 -2.58686,-0.4704 -5.05614,-1.05832 -7.40782,-1.76376 -2.11652,-0.70557 -3.64511,-1.29349 -4.58579,-1.76377 l 5.99681,-26.45649"
         style="font-variant:normal;font-stretch:normal;fill:#000000;font-family:Ubuntu;-inkscape-font-specification:Ubuntu"
         id="path2997"
         inkscape:connector-curvature="0" />
      <path
         d="m 410.14232,422.83751 c 7.52537,-1.88117 17.52003,-3.8801 29.98403,-5.99681 12.46387,-2.11633 26.80916,-3.17459 43.0359,-3.17478 14.58035,1.9e-4 26.69153,2.11671 36.33358,6.34956 9.64178,3.99805 17.28476,9.75968 22.92896,17.28491 5.87906,7.29039 9.99451,16.10922 12.34637,26.4565 2.35151,10.34755 3.52735,21.75323 3.52753,34.21706 l 0,103.00396 -32.80605,0 0,-95.94889 c -1.5e-4,-11.288 -0.82324,-20.92991 -2.46928,-28.92577 -1.41115,-7.99561 -3.88042,-14.46274 -7.40781,-19.40143 -3.52767,-4.93839 -8.23104,-8.46592 -14.11013,-10.5826 -5.87934,-2.35153 -13.16957,-3.52737 -21.87071,-3.52753 -3.52762,1.6e-4 -7.17274,0.11774 -10.93535,0.35276 -3.76278,0.23532 -7.4079,0.58807 -10.93535,1.05826 -3.29244,0.23532 -6.34963,0.58807 -9.17158,1.05826 -2.58693,0.47049 -4.46827,0.82324 -5.64406,1.05825 l 0,154.85869 -32.80605,0 0,-178.1404"
         style="font-variant:normal;font-stretch:normal;fill:#000000;font-family:Ubuntu;-inkscape-font-specification:Ubuntu"
         id="path2999"
         inkscape:connector-curvature="0" />
      <path
         d="m 674.78445,577.34344 c 7.76047,2e-5 14.58036,-0.11756 20.45969,-0.35275 6.11427,-0.47032 11.1704,-1.17582 15.16839,-2.11652 l 0,-54.67676 c -2.35181,-1.17576 -6.23209,-2.11644 -11.64086,-2.82203 -5.17382,-0.94059 -11.52337,-1.41092 -19.04867,-1.41101 -4.93864,9e-5 -10.22993,0.35284 -15.8739,1.05826 -5.40896,0.70559 -10.46508,2.23419 -15.16839,4.58579 -4.46827,2.1166 -8.23097,5.17379 -11.28811,9.17159 -3.05724,3.76277 -4.58584,8.81889 -4.58579,15.16839 -5e-5,11.75848 3.76265,19.98939 11.28811,24.69273 7.52533,4.46823 17.75517,6.70233 30.68953,6.70231 m -2.82203,-164.38302 c 13.16936,1.9e-4 24.22228,1.76395 33.15881,5.2913 9.17146,3.29254 16.46168,8.1135 21.8707,14.46288 5.64391,6.11455 9.64177,13.52236 11.99361,22.22346 2.35154,8.46621 3.52738,17.87296 3.52754,28.22026 l 0,114.64481 c -2.82218,0.47034 -6.82005,1.17585 -11.99361,2.11652 -4.93869,0.70551 -10.58274,1.41101 -16.93216,2.11652 -6.34968,0.7055 -13.28716,1.29342 -20.81244,1.76376 -7.29034,0.70551 -14.58057,1.05826 -21.87071,1.05826 -10.3475,0 -19.87183,-1.05826 -28.57301,-3.17478 -8.7013,-2.11651 -16.22669,-5.40887 -22.57621,-9.87709 -6.34959,-4.70336 -11.28813,-10.81774 -14.81564,-18.34317 -3.52755,-7.52536 -5.29131,-16.57936 -5.2913,-27.162 -10e-6,-10.11219 1.99892,-18.81343 5.99681,-26.10374 4.23301,-7.29015 9.87706,-13.16936 16.93216,-17.63766 7.05502,-4.46811 15.28592,-7.76047 24.69273,-9.87709 9.40668,-2.11641 19.28376,-3.17467 29.63127,-3.17478 3.29227,1.1e-4 6.70221,0.23528 10.22984,0.7055 3.52743,0.23528 6.81979,0.70562 9.8771,1.41102 3.29224,0.47044 6.11427,0.94078 8.46607,1.41101 2.35157,0.47044 3.99775,0.8232 4.93855,1.05826 l 0,-9.17159 c -1.3e-4,-5.40876 -0.58805,-10.70005 -1.76377,-15.87389 -1.17596,-5.40875 -3.29248,-10.11212 -6.34956,-14.11013 -3.0573,-4.23289 -7.29034,-7.52525 -12.69911,-9.87709 -5.17382,-2.5867 -11.99371,-3.88013 -20.45969,-3.88029 -10.81784,1.6e-4 -20.34217,0.82325 -28.57302,2.46927 -7.99579,1.41117 -13.99258,2.93977 -17.99041,4.58579 l -3.88029,-27.162 c 4.233,-1.88117 11.28806,-3.64493 21.1652,-5.2913 9.87702,-1.88116 20.57719,-2.82183 32.10054,-2.82202"
         style="font-variant:normal;font-stretch:normal;fill:#000000;font-family:Ubuntu;-inkscape-font-specification:Ubuntu"
         id="path3001"
         inkscape:connector-curvature="0" />
      <path
         d="m 864.38382,413.66592 c 2.82193,1.9e-4 5.99671,0.23536 9.52434,0.70551 3.7626,0.23536 7.40771,0.70569 10.93535,1.41101 3.52742,0.47053 6.70219,1.05845 9.52434,1.76377 3.05707,0.47052 5.29117,0.94086 6.70231,1.41101 l -5.64405,28.57302 c -2.58698,-0.94052 -6.9376,-1.99878 -13.05187,-3.17478 -5.87933,-1.41086 -13.52231,-2.11636 -22.92896,-2.11652 -6.11448,1.6e-4 -12.22886,0.70566 -18.34317,2.11652 -5.87929,1.176 -9.75957,1.99909 -11.64086,2.46927 l 0,154.15318 -32.80605,0 0,-175.67113 c 7.76053,-2.82185 17.40245,-5.4087 28.92577,-7.76057 11.5232,-2.58667 24.45747,-3.8801 38.80285,-3.88029"
         style="font-variant:normal;font-stretch:normal;fill:#000000;font-family:Ubuntu;-inkscape-font-specification:Ubuntu"
         id="path3003"
         inkscape:connector-curvature="0" />
      <path
         d="m 995.15603,577.34344 c 7.76047,2e-5 14.58037,-0.11756 20.45967,-0.35275 6.1143,-0.47032 11.1704,-1.17582 15.1684,-2.11652 l 0,-54.67676 c -2.3518,-1.17576 -6.2321,-2.11644 -11.6408,-2.82203 -5.1739,-0.94059 -11.5234,-1.41092 -19.0487,-1.41101 -4.93866,9e-5 -10.22995,0.35284 -15.87392,1.05826 -5.40896,0.70559 -10.46508,2.23419 -15.16839,4.58579 -4.46827,2.1166 -8.23096,5.17379 -11.2881,9.17159 -3.05725,3.76277 -4.58584,8.81889 -4.5858,15.16839 -4e-5,11.75848 3.76265,19.98939 11.28811,24.69273 7.52533,4.46823 17.75517,6.70233 30.68953,6.70231 m -2.82202,-164.38302 c 13.16939,1.9e-4 24.22229,1.76395 33.15879,5.2913 9.1715,3.29254 16.4617,8.1135 21.8707,14.46288 5.6439,6.11455 9.6418,13.52236 11.9936,22.22346 2.3516,8.46621 3.5274,17.87296 3.5276,28.22026 l 0,114.64481 c -2.8222,0.47034 -6.8201,1.17585 -11.9937,2.11652 -4.9386,0.70551 -10.5827,1.41101 -16.9321,2.11652 -6.3497,0.7055 -13.2872,1.29342 -20.8125,1.76376 -7.2903,0.70551 -14.58051,1.05826 -21.87065,1.05826 -10.34751,0 -19.87184,-1.05826 -28.57302,-3.17478 -8.70129,-2.11651 -16.22669,-5.40887 -22.57621,-9.87709 -6.34958,-4.70336 -11.28813,-10.81774 -14.81563,-18.34317 -3.52755,-7.52536 -5.29132,-16.57936 -5.2913,-27.162 -2e-5,-10.11219 1.99891,-18.81343 5.9968,-26.10374 4.23302,-7.29015 9.87706,-13.16936 16.93216,-17.63766 7.05502,-4.46811 15.28592,-7.76047 24.69273,-9.87709 9.40668,-2.11641 19.28376,-3.17467 29.63127,-3.17478 3.29225,1.1e-4 6.70225,0.23528 10.22985,0.7055 3.5274,0.23528 6.8198,0.70562 9.8771,1.41102 3.2922,0.47044 6.1143,0.94078 8.4661,1.41101 2.3515,0.47044 3.9977,0.8232 4.9385,1.05826 l 0,-9.17159 c -10e-5,-5.40876 -0.588,-10.70005 -1.7638,-15.87389 -1.1759,-5.40875 -3.2924,-10.11212 -6.3495,-14.11013 -3.0573,-4.23289 -7.2904,-7.52525 -12.6991,-9.87709 -5.1738,-2.5867 -11.99373,-3.88013 -20.45972,-3.88029 -10.81784,1.6e-4 -20.34217,0.82325 -28.57301,2.46927 -7.99579,1.41117 -13.99259,2.93977 -17.99042,4.58579 l -3.88029,-27.162 c 4.233,-1.88117 11.28806,-3.64493 21.1652,-5.2913 9.87703,-1.88116 20.5772,-2.82183 32.10055,-2.82202"
         style="font-variant:normal;font-stretch:normal;fill:#000000;font-family:Ubuntu;-inkscape-font-specification:Ubuntu"
         id="path3005"
         inkscape:connector-curvature="0" />
    </g>
  </g>
</svg>
