<?xml version="1.0" encoding="UTF-8" standalone="no"?>
<!-- Created with Inkscape (http://www.inkscape.org/) -->

<svg
   xmlns:dc="http://purl.org/dc/elements/1.1/"
   xmlns:cc="http://creativecommons.org/ns#"
   xmlns:rdf="http://www.w3.org/1999/02/22-rdf-syntax-ns#"
   xmlns:svg="http://www.w3.org/2000/svg"
   xmlns="http://www.w3.org/2000/svg"
   xmlns:sodipodi="http://sodipodi.sourceforge.net/DTD/sodipodi-0.dtd"
   xmlns:inkscape="http://www.inkscape.org/namespaces/inkscape"
   width="70.555557mm"
   height="70.55555mm"
   viewBox="0 0 250.00001 249.99998"
   id="svg2"
   version="1.1"
   inkscape:version="0.48.4 r9939"
   sodipodi:docname="CynaraIcon.svg"
   inkscape:export-filename="D:\Development\Cynara\Pictures\Cynara.png"
   inkscape:export-xdpi="90"
   inkscape:export-ydpi="90">
  <title
     id="title4194">Cynara</title>
  <sodipodi:namedview
     id="base"
     pagecolor="#ffffff"
     bordercolor="#666666"
     borderopacity="1.0"
     inkscape:pageopacity="0.0"
     inkscape:pageshadow="2"
     inkscape:zoom="2"
     inkscape:cx="5.17879"
     inkscape:cy="133.32541"
     inkscape:document-units="px"
     inkscape:current-layer="layer1"
     showgrid="true"
     inkscape:window-width="1238"
     inkscape:window-height="710"
     inkscape:window-x="78"
     inkscape:window-y="22"
     inkscape:window-maximized="0"
     inkscape:object-paths="false"
     inkscape:showpageshadow="false"
     fit-margin-top="0"
     fit-margin-left="0"
     fit-margin-right="0"
     fit-margin-bottom="0">
    <inkscape:grid
       id="grid4136"
       type="xygrid"
       empspacing="10"
       snapvisiblegridlinesonly="true"
       originx="-5.9785158"
       originy="-0.00090472439" />
  </sodipodi:namedview>
  <defs
     id="defs4" />
  <metadata
     id="metadata7">
    <rdf:RDF>
      <cc:Work
         rdf:about="">
        <dc:format>image/svg+xml</dc:format>
        <dc:type
           rdf:resource="http://purl.org/dc/dcmitype/StillImage" />
        <dc:title>Cynara</dc:title>
        <dc:date>29/02/2016</dc:date>
        <dc:creator>
          <cc:Agent>
            <dc:title>Mathias Spiessens</dc:title>
          </cc:Agent>
        </dc:creator>
        <dc:rights>
          <cc:Agent>
            <dc:title>Cynara Krewe</dc:title>
          </cc:Agent>
        </dc:rights>
        <dc:publisher>
          <cc:Agent>
            <dc:title>Cynara Krewe</dc:title>
          </cc:Agent>
        </dc:publisher>
        <dc:contributor>
          <cc:Agent>
            <dc:title>Sander van Schaick</dc:title>
          </cc:Agent>
        </dc:contributor>
      </cc:Work>
    </rdf:RDF>
  </metadata>
  <g
     id="layer1"
     inkscape:groupmode="layer"
     inkscape:label="Layer 1"
     transform="translate(-5.9785156,-802.36133)">
    <path
       style="fill:#000000;fill-opacity:1;stroke:none;stroke-width:0;stroke-linecap:round;stroke-linejoin:round;stroke-miterlimit:4;stroke-dasharray:none;stroke-dashoffset:0;stroke-opacity:1"
       d="m 53.486328,802.36133 c -26.318732,0 -47.5078124,21.18908 -47.5078124,47.50781 l 0,154.98636 c 0,26.3187 21.1890804,47.5058 47.5078124,47.5058 l 154.986332,0 c 26.31873,0 47.50586,-21.1871 47.50586,-47.5058 l 0,-154.98636 c 0,-26.31873 -21.18713,-47.50781 -47.50586,-47.50781 l -154.986332,0 z m 77.404292,38.375 c 2.58616,0 24.75728,14.37603 33.88086,21.96875 2.78654,2.31898 3.13706,2.85295 5.04102,7.72265 1.1251,2.87764 2.04492,5.47398 2.04492,5.76758 0,0.29361 -2.75625,1.91364 -6.125,3.60157 -12.83446,6.43079 -30.4487,16.86651 -32.36523,19.17578 -0.36462,0.43935 -1.03125,1.93246 -1.48242,3.3164 l -0.82032,2.51563 -0.64648,-2.51953 c -0.73695,-2.87541 -2.17678,-4.3468 -7.76367,-7.93164 -4.09053,-2.6247 -17.16369,-9.96095 -26.394534,-14.81055 l -6.347657,-3.33399 0.65625,-1.86523 c 2.632656,-7.46174 3.793649,-9.46378 6.91211,-11.92773 10.636281,-8.40391 31.095441,-21.67969 33.410151,-21.67969 z m 91.57813,2.57226 c 0.0724,-0.0117 0.1181,-0.0108 0.13477,0.006 0.1045,0.10449 -0.94116,1.98689 -2.32227,4.18164 -3.40335,5.40836 -6.92383,12.63258 -6.92383,14.20703 0,0.70935 0.74916,3.2015 1.66602,5.53711 2.08968,5.32321 5.99627,17.00283 5.75976,17.22071 -0.0973,0.0896 -2.28664,1.44047 -4.86718,3 -14.56876,8.80452 -17.54731,11.71281 -17.55664,17.15039 -0.003,1.64303 -0.98738,2.36874 -1.01758,0.75 -0.009,-0.48125 -0.45708,-2.1125 -0.99414,-3.625 -0.53706,-1.5125 -1.78081,-7.55827 -2.76368,-13.43555 -0.98287,-5.87728 -2.23855,-11.8945 -2.79101,-13.37109 -1.55849,-4.16543 -3.70288,-5.07835 -7.94531,-3.38086 -1.11697,0.44692 -2.11796,0.72579 -2.22266,0.62109 -0.10469,-0.10469 -0.0638,-2.0225 0.0898,-4.26367 l 0.2793,-4.07617 4.30664,-2.56836 c 6.6479,-3.96388 34.92238,-17.59018 37.16797,-17.95313 z m -182.875,0.1211 c 1.815963,0.19794 23.872135,10.60214 33.648438,15.90429 7.952436,4.31299 8.115234,4.49631 8.115234,9.12891 0,2.07563 -0.08553,3.77344 -0.189453,3.77344 -0.103916,0 -0.997123,-0.3375 -1.984375,-0.75 -4.144634,-1.73174 -6.648487,-0.40503 -8.033203,4.25781 -0.429273,1.44552 -1.477078,6.92939 -2.330079,12.18555 -0.852998,5.25616 -2.088584,11.35664 -2.74414,13.55664 -0.655556,2.2 -1.383081,4.7875 -1.617188,5.75 -0.391663,1.61027 -0.452458,1.4582 -0.769531,-1.90625 -0.189523,-2.01102 -0.663398,-4.41975 -1.052734,-5.35156 -0.840947,-2.01267 -6.029607,-5.99919 -15.113281,-11.61329 -4.106922,-2.53826 -6.166016,-4.10578 -6.166016,-4.6914 0,-0.48366 1.492551,-4.99813 3.316406,-10.03321 1.823854,-5.03508 3.420249,-10.10791 3.548828,-11.27343 0.280523,-2.54282 -1.328714,-6.28161 -5.941406,-13.79297 -1.658941,-2.70144 -2.919326,-5.01036 -2.798828,-5.13086 0.01537,-0.0154 0.05275,-0.0201 0.111328,-0.0137 z m 145.83203,32.86523 c 0.0956,-0.009 0.15826,0.002 0.1875,0.0312 0.27692,0.27692 2.11683,10.09887 3.02734,16.16016 0.45441,3.025 1.35249,7.1875 1.99415,9.25 0.64165,2.0625 1.63508,6.1125 2.20898,9 1.14033,5.73745 3.75084,23.6404 4.27344,29.30859 l 0.32812,3.55664 -4.68359,2.52539 c -6.2527,3.37074 -7.14574,4.32872 -7.92188,8.49805 -0.99802,5.36124 -1.09268,5.40484 -2.66601,1.19727 -1.11949,-2.99388 -1.9973,-4.3874 -4,-6.34766 -4.74559,-4.64504 -29.74642,-20.48809 -39.43164,-24.98828 -3.00678,-1.39708 -4.39078,-2.3215 -4.58985,-3.06641 -0.27883,-1.04332 1.01064,-9.14607 2.50782,-15.75586 0.72285,-3.19129 0.86491,-3.40012 3.59961,-5.30664 8.28885,-5.77865 42.20382,-23.79297 45.16601,-24.0625 z m -108.255858,0.0859 c 0.6276,-0.2092 21.411036,10.24954 30.937498,15.56836 3.85,2.14953 9.16815,5.33757 11.81836,7.08594 l 4.81836,3.17968 0.83984,3.42383 c 0.46151,1.88323 1.35034,6.3565 1.97657,9.93945 l 1.13867,6.51368 -1.79492,0.61718 c -6.27513,2.15541 -34.328015,19.29504 -42.458988,25.94141 -2.264835,1.85131 -3.865845,4.55373 -5.308593,8.96094 -0.472627,1.44375 -0.914375,2.625 -0.980469,2.625 -0.0661,0 -0.382963,-1.69566 -0.705078,-3.76758 -0.933551,-6.00483 -1.751748,-7.01467 -8.398438,-10.38281 l -2.539062,-1.28711 -0.314453,-5.88281 c -0.261543,-4.88032 -0.09913,-7.33618 0.955078,-14.40625 1.562436,-10.47848 3.488938,-20.14074 4.5,-22.56055 0.417442,-0.99908 1.531898,-6.463 2.476562,-12.14063 1.905526,-11.45261 2.296502,-13.18021 3.039063,-13.42773 z m 161.902348,3.85547 c 0.14229,0 -1.03743,1.85625 -2.6211,4.125 -4.40045,6.30404 -7.47791,11.42139 -8.35351,13.89062 -0.64102,1.8077 -0.69525,2.80722 -0.28516,5.23438 0.55311,3.27371 1.9347,18.10774 2.15625,23.15039 l 0.13867,3.15234 -2.25,0.95899 c -1.2375,0.52797 -6.525,2.74156 -11.75,4.91992 -5.225,2.17837 -10.33083,4.32112 -11.3457,4.75976 l -1.8457,0.79688 -0.4043,-2.36914 c -0.9513,-5.56821 0.52673,-34.08833 1.90234,-36.70899 0.64197,-1.22302 7.63672,-6.12203 15.86524,-11.11132 7.68954,-4.66247 18.36879,-10.79883 18.79297,-10.79883 z m -215.378911,0.62695 c 2.305714,0.33966 28.656032,16.43535 32.732422,20.05664 1.371624,1.21849 1.423209,1.49874 2.695313,14.56641 0.209536,2.15246 1.729434,24.82736 1.734375,25.875 0.0032,0.67959 -1.189254,0.30113 -6.248047,-1.98438 -2.75,-1.24242 -8.820513,-3.81597 -13.490234,-5.71679 -4.66972,-1.90082 -8.681592,-3.64449 -8.914063,-3.87696 -0.440656,-0.44066 0.101187,-8.59252 1.486328,-22.39453 l 0.8125,-8.09765 -1.416015,-2.90235 c -0.778486,-1.5963 -3.292098,-5.69069 -5.585938,-9.09761 -2.293839,-3.40692 -4.072736,-6.2925 -3.953125,-6.41211 0.02278,-0.0228 0.07211,-0.0266 0.146484,-0.0156 z m 107.044921,45.81055 2.94922,1.24023 c 8.10188,3.41004 37.48332,21.61051 41.00781,25.40235 1.50541,1.6196 2.74565,4.98755 5.33985,14.49804 3.77034,13.82231 6.31604,26.5214 6.32031,31.5293 0.001,1.81769 0.22304,2.47599 0.96875,2.87509 1.47338,0.7884 2.7824,0.623 3.7793,-0.4786 1.2593,-1.3915 0.79958,-6.60533 -1.58008,-17.91993 -1.02202,-4.85943 -1.80986,-9.84648 -1.75196,-11.08398 0.0579,-1.2375 0.67296,-5.9625 1.36719,-10.5 1.06645,-6.97045 1.43321,-8.39861 2.36524,-9.20508 1.62063,-1.40229 14.65119,-7.54888 26.10351,-12.31445 12.34679,-5.13778 28.43434,-11.46215 28.63867,-11.25782 0.0835,0.0835 -2.35035,3.27411 -5.41015,7.08985 -3.05979,3.81574 -6.36335,8.2875 -7.33985,9.9375 -1.74549,2.94938 -1.77638,3.10125 -1.875,9 -0.36436,21.79229 -10.85517,45.46501 -22.83789,51.53711 -5.64127,2.8587 -19.17845,4.7764 -43.92578,6.2246 -12.15237,0.7111 -52.03188,1.0028 -64.999998,0.4747 -19.86192,-0.8089 -37.718462,-2.8253 -43.722656,-4.9356 -9.709576,-3.4127 -17.84737,-15.07655 -22.542969,-32.31253 -2.119038,-7.77827 -2.813019,-12.16653 -3.160156,-20.00195 l -0.332032,-7.51172 -2.83789,-4.23828 c -1.56036,-2.33072 -4.855104,-6.71133 -7.322266,-9.73633 -2.467162,-3.025 -4.432919,-5.55562 -4.369141,-5.62305 0.176848,-0.18697 20.453236,7.81511 29.996094,11.83789 9.763597,4.11582 19.402632,8.58254 23.128906,10.71875 l 2.589844,1.48438 0.769532,4.29101 c 1.659599,9.25178 3.743221,27.0087 4.582031,39.04102 0.182125,2.6125 0.55965,5.03121 0.83789,5.37501 0.88959,1.099 3.2794,0.7449 4.171875,-0.6172 0.7287,-1.1122 0.75205,-2.03384 0.22461,-8.875 -0.32371,-4.19869 -0.86436,-10.04647 -1.203125,-12.99609 l -0.617188,-5.36328 2.105469,-7.38672 c 3.45902,-12.13932 3.731383,-12.6956 7.601562,-15.55274 9.235161,-6.81781 26.618598,-17.56904 35.416018,-21.90429 l 5.56445,-2.74219 z"
       id="rect4145"
       inkscape:connector-curvature="0" />
    <g
       style="stroke-width:0.5;stroke-miterlimit:4;stroke-dasharray:none"
       transform="matrix(10,0,0,10,119.99996,-9585.9161)"
       id="g4169">
      <g
         id="g4223">
        <g
           id="g4228">
          <g
             id="g4271" />
        </g>
      </g>
    </g>
    <g
       transform="translate(120,-94)"
       id="g4214" />
  </g>
</svg>
