<?xml version="1.0" encoding="UTF-8" standalone="no"?>
<!-- Created with Inkscape (http://www.inkscape.org/) -->

<svg
   xmlns:dc="http://purl.org/dc/elements/1.1/"
   xmlns:cc="http://creativecommons.org/ns#"
   xmlns:rdf="http://www.w3.org/1999/02/22-rdf-syntax-ns#"
   xmlns:svg="http://www.w3.org/2000/svg"
   xmlns="http://www.w3.org/2000/svg"
   xmlns:sodipodi="http://sodipodi.sourceforge.net/DTD/sodipodi-0.dtd"
   xmlns:inkscape="http://www.inkscape.org/namespaces/inkscape"
   width="58.169121mm"
   height="44.089844mm"
   viewBox="0 0 206.11106 156.22386"
   id="svg2"
   version="1.1"
   inkscape:version="0.91 r13725"
   sodipodi:docname="CynaraBlackInverted.svg">
  <title
     id="title4706">Cynara</title>
  <sodipodi:namedview
     id="base"
     pagecolor="#ffffff"
     bordercolor="#666666"
     borderopacity="1.0"
     inkscape:pageopacity="0.0"
     inkscape:pageshadow="2"
     inkscape:zoom="2.8284271"
     inkscape:cx="28.439845"
     inkscape:cy="78.173857"
     inkscape:document-units="px"
     inkscape:current-layer="layer1"
     showgrid="true"
     inkscape:window-width="1238"
     inkscape:window-height="1041"
     inkscape:window-x="78"
     inkscape:window-y="1080"
     inkscape:window-maximized="0"
     inkscape:object-paths="false"
     fit-margin-top="0"
     fit-margin-left="0"
     fit-margin-right="0"
     fit-margin-bottom="0"
     inkscape:showpageshadow="false">
    <inkscape:grid
       id="grid4136"
       type="xygrid"
       empspacing="10"
       snapvisiblegridlinesonly="true"
       originx="-10.057685"
       originy="-5.1055233" />
  </sodipodi:namedview>
  <defs
     id="defs4" />
  <metadata
     id="metadata7">
    <rdf:RDF>
      <cc:Work
         rdf:about="">
        <dc:format>image/svg+xml</dc:format>
        <dc:type
           rdf:resource="http://purl.org/dc/dcmitype/StillImage" />
        <dc:title>Cynara</dc:title>
        <dc:date>29/02/2016</dc:date>
        <dc:creator>
          <cc:Agent>
            <dc:title>Mathias Spiessens</dc:title>
          </cc:Agent>
        </dc:creator>
        <dc:rights>
          <cc:Agent>
            <dc:title>Cynara Krewe</dc:title>
          </cc:Agent>
        </dc:rights>
        <dc:publisher>
          <cc:Agent>
            <dc:title>Cynara Krewe</dc:title>
          </cc:Agent>
        </dc:publisher>
        <dc:contributor>
          <cc:Agent>
            <dc:title>Sander van Schaick</dc:title>
          </cc:Agent>
        </dc:contributor>
      </cc:Work>
    </rdf:RDF>
  </metadata>
  <g
     id="layer1"
     inkscape:groupmode="layer"
     inkscape:label="Layer 1"
     transform="translate(-10.057685,-891.03283)">
    <g
       style="stroke-width:0.5;stroke-miterlimit:4;stroke-dasharray:none"
       transform="matrix(10,0,0,10,119.99996,-9585.9161)"
       id="g4169">
      <g
         id="g4223">
        <g
           id="g4228">
          <g
             id="g4271" />
        </g>
      </g>
    </g>
    <g
       transform="translate(120,-94)"
       id="g4214" />
    <path
       style="fill:#000000;fill-opacity:1;stroke:none;stroke-width:0;stroke-linecap:round;stroke-linejoin:round;stroke-miterlimit:4;stroke-dasharray:none;stroke-dashoffset:0;stroke-opacity:1"
       d="m 52.472761,947.97796 c -0.127183,-1.36844 -0.543367,-3.09988 -0.924854,-3.84766 -1.005381,-1.97071 -6.889716,-6.28209 -16.339127,-11.97148 l -3.076617,-1.8524 2.140206,-6.2621 c 1.177113,-3.44415 2.661338,-7.61443 3.298276,-9.2673 0.63694,-1.65286 1.249993,-3.27786 1.362342,-3.61111 0.575577,-1.70728 -1.70081,-6.90365 -6.068743,-13.85328 -1.208518,-1.92283 -2.153692,-3.53544 -2.100387,-3.5836 0.484899,-0.43803 31.503118,14.71936 34.919323,17.0637 2.174236,1.49206 2.368079,1.96015 2.43565,5.88168 0.04073,2.36414 0.021,2.42113 -0.753666,2.17608 -4.226024,-1.33687 -5.092386,-1.31317 -6.585698,0.18014 -1.470753,1.47075 -2.342629,4.65962 -3.928083,14.36689 -0.833862,5.10548 -1.874669,10.14807 -2.486978,12.04911 -0.579144,1.79807 -1.052988,3.57855 -1.052988,3.95661 0,0.37807 -0.136668,0.77186 -0.303708,0.87509 -0.167038,0.10324 -0.407765,-0.93193 -0.534948,-2.30037 z"
       id="path4737"
       inkscape:connector-curvature="0" />
    <path
       style="fill:#000000;fill-opacity:1;stroke:none;stroke-width:0;stroke-linecap:round;stroke-linejoin:round;stroke-miterlimit:4;stroke-dasharray:none;stroke-dashoffset:0;stroke-opacity:1"
       d="m 43.942252,979.67851 c -2.722361,-1.20983 -8.211278,-3.52798 -12.197592,-5.15146 -3.986314,-1.62348 -7.388589,-3.07261 -7.56061,-3.2203 -0.363111,-0.31174 0.203447,-8.6407 1.27199,-18.69951 0.402807,-3.79186 0.715057,-7.34568 0.693888,-7.89737 -0.07723,-2.01277 -2.712727,-6.80317 -7.562232,-13.74546 -1.319662,-1.88916 -2.399385,-3.51316 -2.399385,-3.60889 0,-0.22555 6.098794,3.21931 13.258252,7.48883 7.439739,4.43667 14.134023,8.85823 15.987543,10.55975 l 1.491854,1.36951 0.536591,5.48007 c 1.261672,12.88515 2.254011,29.72014 1.748398,29.6615 -0.175422,-0.0204 -2.546336,-1.02685 -5.268697,-2.23667 z"
       id="path4739"
       inkscape:connector-curvature="0" />
    <path
       style="fill:#000000;fill-opacity:1;stroke:none;stroke-width:0;stroke-linecap:round;stroke-linejoin:round;stroke-miterlimit:4;stroke-dasharray:none;stroke-dashoffset:0;stroke-opacity:1"
       d="m 94.677163,1047.1195 c -7.732923,-0.1524 -21.534859,-0.8325 -27.930717,-1.3763 -12.379032,-1.0524 -20.079804,-2.5051 -23.815903,-4.4927 -2.728551,-1.4517 -6.747327,-5.2432 -8.96401,-8.4572 -6.5586,-9.5094 -11.284238,-25.548 -11.527793,-39.12489 l -0.0865,-4.82195 -1.362086,-2.26252 c -1.561936,-2.59449 -4.804928,-6.93228 -8.60791,-11.51386 -1.447108,-1.74338 -2.4840462,-3.2188 -2.304307,-3.27871 0.620724,-0.20691 21.227887,8.00079 32.701966,13.02498 8.024875,3.51388 15.411885,7.30637 16.001004,8.21492 1.154653,1.78072 4.381022,26.51683 4.987907,38.24163 0.203742,3.9362 0.341925,4.7104 0.962291,5.3917 0.971869,1.0672 2.707409,1.0566 3.721482,-0.023 0.677337,-0.721 0.768611,-1.2149 0.767688,-4.1543 -0.0011,-3.1755 -0.594999,-10.4781 -1.428016,-17.5559 -0.369365,-3.1384 -0.342753,-3.4151 0.714008,-7.4246 1.347105,-5.1112 3.417369,-11.49649 4.294012,-13.24392 0.817991,-1.63054 2.881824,-3.21891 11.977391,-9.21806 12.637717,-8.33545 26.13291,-15.90916 28.34768,-15.90916 3.27828,0 33.45522,18.18425 38.87055,23.42291 1.51281,1.46346 1.77353,1.98776 3.25254,6.54074 3.21397,9.89399 7.08219,27.25059 7.55371,33.89349 0.16975,2.3914 0.38397,3.326 0.87491,3.8169 0.92878,0.9288 2.62553,0.8282 3.67139,-0.2177 0.75113,-0.7511 0.86781,-1.1908 0.86775,-3.2703 -9e-5,-2.9654 -1.05041,-9.5219 -2.65954,-16.6019 l -1.21833,-5.3605 0.547,-4.1854 c 0.30085,-2.302 0.92198,-6.409 1.38028,-9.12671 0.70425,-4.17608 0.96085,-5.04534 1.65713,-5.61367 1.28098,-1.04558 11.34936,-5.85494 19.73896,-9.4287 6.06995,-2.58565 16.3821,-6.74356 27.32334,-11.01691 0.54099,-0.21129 1.07147,-0.29631 1.17885,-0.18893 0.10738,0.10738 -1.58268,2.38473 -3.75568,5.06077 -3.93765,4.84919 -6.73811,8.75331 -7.96405,11.10263 -0.52887,1.0135 -0.6597,2.19715 -0.72295,6.54073 -0.0518,3.55956 -0.32435,6.67199 -0.82884,9.46599 -2.63032,14.5672 -7.37666,25.5791 -13.95451,32.3756 -4.37685,4.5223 -7.73773,6.0117 -16.8325,7.4593 -16.07483,2.5586 -47.51905,3.905 -77.428195,3.3153 z"
       id="path4741"
       inkscape:connector-curvature="0" />
    <path
       style="fill:#000000;fill-opacity:1;stroke:none;stroke-width:0;stroke-linecap:round;stroke-linejoin:round;stroke-miterlimit:4;stroke-dasharray:none;stroke-dashoffset:0;stroke-opacity:1"
       d="m 65.025447,995.17342 c -0.86159,-5.20642 -1.716475,-6.26487 -7.345091,-9.09414 l -2.525352,-1.26939 -0.251074,-5.40634 c -0.266204,-5.7321 -0.118976,-7.26706 1.807192,-18.84136 1.169944,-7.03017 2.144272,-11.48378 3.171263,-14.49569 0.46413,-1.36118 1.477807,-6.3728 2.252614,-11.13693 0.774808,-4.76413 1.612278,-9.34086 1.861046,-10.1705 l 0.452304,-1.50844 4.894743,2.2877 c 14.43052,6.74453 36.393908,19.21486 37.826528,21.47706 0.61184,0.96614 1.30691,3.97173 2.5268,10.92627 1.10467,6.2977 1.10495,6.26886 -0.0649,6.71365 -7.57757,2.88098 -34.845809,19.79996 -39.526297,24.52466 -1.608053,1.62324 -2.328745,2.6974 -2.978601,4.43946 -1.80776,4.84603 -1.583782,4.68038 -2.101155,1.55399 z"
       id="path4743"
       inkscape:connector-curvature="0" />
    <path
       style="fill:#000000;fill-opacity:1;stroke:none;stroke-width:0;stroke-linecap:round;stroke-linejoin:round;stroke-miterlimit:4;stroke-dasharray:none;stroke-dashoffset:0;stroke-opacity:1"
       d="m 112.70489,946.05402 c -0.53294,-1.90348 -1.85039,-3.3686 -4.85354,-5.39755 -5.01301,-3.38684 -14.312617,-8.67046 -25.018225,-14.21426 -3.500179,-1.81253 -6.40254,-3.32134 -6.449691,-3.3529 -0.14783,-0.099 2.658638,-7.12388 3.513494,-8.7947 0.973333,-1.90238 3.886245,-4.31268 12.548175,-10.38302 7.173865,-5.0275 13.653827,-9.17479 17.698407,-11.3273 l 2.91519,-1.55146 3.27199,1.72429 c 8.38712,4.4199 28.1005,18.21913 29.66172,20.763 0.58682,0.95617 2.99765,6.87726 3.62926,8.91361 0.21315,0.68721 -0.27925,1.03247 -4.99176,3.50013 -16.8642,8.83074 -26.78731,14.7647 -29.37381,17.56535 -0.44608,0.48301 -1.09717,1.63195 -1.44687,2.5532 l -0.63582,1.67501 -0.46852,-1.6734 z"
       id="path4745"
       inkscape:connector-curvature="0" />
    <path
       style="fill:#000000;fill-opacity:1;stroke:none;stroke-width:0;stroke-linecap:round;stroke-linejoin:round;stroke-miterlimit:4;stroke-dasharray:none;stroke-dashoffset:0;stroke-opacity:1"
       d="m 160.11123,996.36175 c -0.24208,-0.82769 -0.9861,-2.65128 -1.65336,-4.05243 -1.03367,-2.17053 -1.59172,-2.84491 -3.77075,-4.55674 -6.58566,-5.17366 -25.73534,-17.09263 -33.86401,-21.07733 -3.84136,-1.88305 -4.55424,-2.35947 -4.65031,-3.10786 -0.13384,-1.04263 1.19874,-9.10783 2.23658,-13.53653 0.71262,-3.04092 0.76665,-3.13563 2.55166,-4.47314 3.48486,-2.61121 13.81077,-8.55161 25.86525,-14.88002 5.34747,-2.80734 15.12284,-7.43642 15.30951,-7.24975 0.37348,0.37347 1.27657,4.90744 2.3811,11.95425 0.74919,4.77979 1.67453,9.30733 2.27617,11.13693 1.13408,3.44879 2.3412,9.37315 3.70824,18.19953 0.83017,5.3601 2.31115,17.31534 2.31115,18.65685 0,0.32681 -1.22271,1.14652 -3.09359,2.07397 -4.47366,2.21771 -6.64318,3.75417 -7.32257,5.18589 -0.32266,0.67995 -0.83186,2.54435 -1.13156,4.1431 -0.2997,1.59875 -0.58281,2.94762 -0.62913,2.99749 -0.0463,0.0499 -0.28229,-0.58653 -0.52438,-1.41421 z"
       id="path4747"
       inkscape:connector-curvature="0" />
    <path
       style="fill:#000000;fill-opacity:1;stroke:none;stroke-width:0;stroke-linecap:round;stroke-linejoin:round;stroke-miterlimit:4;stroke-dasharray:none;stroke-dashoffset:0;stroke-opacity:1"
       d="m 173.16602,948.90019 c 0,-0.28879 -0.46512,-1.92503 -1.03359,-3.63608 -0.57034,-1.71669 -1.44606,-5.79936 -1.9539,-9.10926 -1.98221,-12.91918 -2.9548,-16.37928 -4.97634,-17.70384 -1.17919,-0.77263 -3.16703,-0.69681 -5.26076,0.20067 -0.94861,0.40662 -1.79252,0.67152 -1.87538,0.58867 -0.0828,-0.0829 -0.037,-1.69822 0.10181,-3.58971 l 0.25244,-3.43907 2.68828,-1.73812 c 4.40113,-2.84559 33.78206,-17.17127 34.28026,-16.71451 0.0692,0.0634 -1.00034,1.93011 -2.37664,4.14824 -3.19656,5.15176 -5.38907,9.72395 -5.61219,11.7035 -0.14011,1.24306 0.11008,2.28872 1.24819,5.21667 2.17951,5.60714 5.39846,15.18602 5.2072,15.49549 -0.0938,0.15176 -1.32687,0.95499 -2.74017,1.78497 -5.46755,3.21088 -12.87152,8.32001 -14.79788,10.21131 -1.92238,1.88739 -2.036,2.09902 -2.43899,4.54287 -0.39109,2.37171 -0.71234,3.2909 -0.71234,2.0382 z"
       id="path4749"
       inkscape:connector-curvature="0" />
    <path
       style="fill:#000000;fill-opacity:1;stroke:none;stroke-width:0;stroke-linecap:round;stroke-linejoin:round;stroke-miterlimit:4;stroke-dasharray:none;stroke-dashoffset:0;stroke-opacity:1"
       d="m 178.10426,980.80312 c -0.006,-0.24307 -0.22632,-2.15404 -0.48888,-4.24661 -0.40146,-3.1995 -0.4008,-4.88657 0.004,-10.6066 0.56046,-7.91685 1.51335,-18.20899 1.76436,-19.05674 0.23128,-0.78116 2.35588,-2.47762 6.86361,-5.48048 5.85539,-3.90063 22.75098,-13.90774 23.48123,-13.90774 0.1197,0 -1.36038,2.34671 -3.28907,5.21491 -1.92869,2.8682 -4.11873,6.3887 -4.86675,7.82333 -1.6478,3.16028 -1.6681,3.64671 -0.57741,13.83181 0.42688,3.98632 0.86869,8.52064 0.98179,10.07628 0.11311,1.55563 0.29256,3.72154 0.39878,4.81314 l 0.19312,1.98472 -5.06356,2.02608 c -2.78496,1.11435 -8.18603,3.36343 -12.00239,4.99796 -3.81635,1.63454 -7.03977,2.97188 -7.16315,2.97188 -0.12337,0 -0.22949,-0.19887 -0.23582,-0.44194 z"
       id="path4751"
       inkscape:connector-curvature="0" />
  </g>
</svg>
