<?xml version="1.0" encoding="UTF-8" standalone="no"?>
<!-- Created with Inkscape (http://www.inkscape.org/) -->

<svg
   xmlns:dc="http://purl.org/dc/elements/1.1/"
   xmlns:cc="http://creativecommons.org/ns#"
   xmlns:rdf="http://www.w3.org/1999/02/22-rdf-syntax-ns#"
   xmlns:svg="http://www.w3.org/2000/svg"
   xmlns="http://www.w3.org/2000/svg"
   xmlns:sodipodi="http://sodipodi.sourceforge.net/DTD/sodipodi-0.dtd"
   xmlns:inkscape="http://www.inkscape.org/namespaces/inkscape"
   width="63.805859mm"
   height="46.89624mm"
   viewBox="0 0 226.08375 166.16778"
   id="svg2"
   version="1.1"
   inkscape:version="0.91 r13725"
   sodipodi:docname="CynaraBase.svg">
  <title
     id="title4145">Cynara</title>
  <sodipodi:namedview
     id="base"
     pagecolor="#ffffff"
     bordercolor="#666666"
     borderopacity="1.0"
     inkscape:pageopacity="0.0"
     inkscape:pageshadow="2"
     inkscape:zoom="2.8284271"
     inkscape:cx="38.424032"
     inkscape:cy="83.210211"
     inkscape:document-units="px"
     inkscape:current-layer="layer1"
     showgrid="true"
     inkscape:window-width="1238"
     inkscape:window-height="1041"
     inkscape:window-x="78"
     inkscape:window-y="1080"
     inkscape:window-maximized="0"
     inkscape:object-paths="false"
     fit-margin-top="0"
     fit-margin-left="0"
     fit-margin-right="0"
     fit-margin-bottom="0"
     inkscape:showpageshadow="false">
    <inkscape:grid
       id="grid4136"
       type="xygrid"
       empspacing="10"
       snapvisiblegridlinesonly="true"
       originx="-0.07349785"
       originy="-0.06916882" />
  </sodipodi:namedview>
  <defs
     id="defs4" />
  <metadata
     id="metadata7">
    <rdf:RDF>
      <cc:Work
         rdf:about="">
        <dc:format>image/svg+xml</dc:format>
        <dc:type
           rdf:resource="http://purl.org/dc/dcmitype/StillImage" />
        <dc:title>Cynara</dc:title>
        <dc:date>29/02/2016</dc:date>
        <dc:creator>
          <cc:Agent>
            <dc:title>Mathias Spiessens</dc:title>
          </cc:Agent>
        </dc:creator>
        <dc:rights>
          <cc:Agent>
            <dc:title>Cynara Krewe</dc:title>
          </cc:Agent>
        </dc:rights>
        <dc:publisher>
          <cc:Agent>
            <dc:title>Cynara Krewe</dc:title>
          </cc:Agent>
        </dc:publisher>
        <dc:contributor>
          <cc:Agent>
            <dc:title>Sander van Schaick</dc:title>
          </cc:Agent>
        </dc:contributor>
      </cc:Work>
    </rdf:RDF>
  </metadata>
  <g
     id="layer1"
     inkscape:groupmode="layer"
     inkscape:label="Layer 1"
     transform="translate(-0.07349785,-886.12526)">
    <g
       style="stroke-width:0.5;stroke-miterlimit:4;stroke-dasharray:none"
       transform="matrix(10,0,0,10,119.99996,-9585.9161)"
       id="g4169">
      <g
         id="g4223">
        <g
           id="g4228">
          <g
             id="g4271" />
        </g>
      </g>
    </g>
    <g
       transform="translate(120,-94)"
       id="g4214" />
    <g
       id="g4389"
       transform="matrix(10.602448,0,0,9.9770741,113.11536,-9427.8177)"
       style="fill:none;fill-opacity:1;stroke:#000000;stroke-width:0.48614445;stroke-miterlimit:4;stroke-dasharray:none;stroke-opacity:1">
      <g
         id="g4391"
         style="fill:none;fill-opacity:1;stroke:#000000;stroke-width:0.48614445;stroke-miterlimit:4;stroke-dasharray:none;stroke-opacity:1">
        <g
           id="g4393"
           style="fill:none;fill-opacity:1;stroke:#000000;stroke-width:0.48614445;stroke-miterlimit:4;stroke-dasharray:none;stroke-opacity:1">
          <g
             id="g4395"
             style="fill:none;fill-opacity:1;stroke:#000000;stroke-width:0.48614445;stroke-miterlimit:4;stroke-dasharray:none;stroke-opacity:1">
            <g
               id="g4597"
               style="fill:none;fill-opacity:1;stroke:#000000;stroke-width:0.48614445;stroke-miterlimit:4;stroke-dasharray:none;stroke-opacity:1">
              <path
                 id="path4401"
                 transform="matrix(0.1,0,0,0.1,3.6268367e-6,934.59161)"
                 style="fill:none;fill-opacity:1;stroke:#000000;stroke-width:4.86144447;stroke-linecap:round;stroke-linejoin:round;stroke-miterlimit:4;stroke-dasharray:none;stroke-opacity:1"
                 d="m -45.710095,1117.45 c 2.145633,-9.3035 4.672088,-18.1314 6.102766,-19.9461 2.99657,-3.799 34.8012009,-25.3038 39.607312911023,-25.3038 C 4.8060958,1072.2001 36.610728,1093.7049 39.607298,1097.5039 c 2.99656,3.801 10.851653,38.608 9.78219,43.347 m -3.679333,-23.4249 c 1.061931,-9.3064 2.31453,-18.1038 3.022687,-19.9191 1.482806,-3.8 52.877958,-25.3038 55.256188,-25.3038 2.37823,0 -17.540811,21.5038 -16.058001,25.3038 1.4828,3.801 -3.044972,46.9353 -24.504255,53.2692 -21.459283,6.334 -106.053471,7.0447 -127.183151,0.3554 -21.129679,-6.6893 -25.653591,-49.8236 -24.170791,-53.6236 1.48281,-3.801 -18.440172,-25.305 -16.061942,-25.305 2.37824,0 53.777322,21.504 55.260132,25.305 1.4828,3.8 5.36978,38.607 4.84058,43.347 m 101.717847,-62.5385 c 0.702558,-11.8644 1.693386,-24.4985 2.285473,-26.9429 0.922551,-3.8097 37.123198,-25.3501 38.602847,-25.3501 1.479661,0 -15.137692,21.5404 -14.215141,25.3501 0.589982,2.4358 1.791761,15.578 2.495388,27.4242 m -173.829545,-0.2493 c 0.703586,-11.8467 1.738852,-24.7378 2.328922,-27.1739 0.922523,-3.8097 -15.694813,-25.3491 -14.21515,-25.3491 1.479649,0 37.680288,21.5394 38.602839,25.3491 0.867432,3.5813 2.848963,32.9123 2.833705,40.5586 m 57.44057547,-23.5875 c 1.23524793,-8.1749 2.56749023,-15.3498 3.36621433,-16.9731 1.8740012,-3.8097 40.6277402,-25.3501 43.6334142,-25.3501 3.005683,0 4.032285,21.5404 5.906287,25.3501 1.675635,3.4056 5.447028,29.3876 5.819179,38.727 m -116.571643,-10.4253 c 1.434649,-11.7935 3.744506,-25.8887 4.931388,-28.3007 1.874011,-3.8097 2.900604,-25.3501 5.906278,-25.3501 3.005683,0 41.7594121,21.5404 43.6334321,25.3501 0.9263758,1.8828 2.51187127,10.9171 3.88198874,20.594 M -37.723396,1029.6987 c 2.074907,-6.3845 3.994228,-11.4678 5.00687,-12.7291 2.758912,-3.4347 28.928681,-22.81185 32.716507276773,-22.81185 C 3.7878075,994.15775 29.957575,1013.5349 32.716487,1016.9696 c 0.990542,1.2338 2.946347,6.4369 5.047816,12.894 m 1.977326,-1.0534 c 0.05294,-5.9656 0.220356,-10.6339 0.513059,-11.8378 0.835633,-3.4357 41.027054,-22.81214 42.901422,-22.81214 1.874357,0 -12.417496,19.37644 -10.522621,22.81214 0.921133,1.6704 3.839449,10.617 6.709644,20.101 m -158.683731,0 c 2.870362,-9.485 5.78899,-18.4326 6.710104,-20.1025 1.895027,-3.4369 -12.400046,-22.81334 -10.525685,-22.81334 1.874368,0 42.069003,19.37644 42.90457,22.81334 0.282032,1.1594 0.445472,5.8267 0.501074,11.7463"
                 inkscape:connector-curvature="0" />
            </g>
          </g>
        </g>
      </g>
    </g>
  </g>
</svg>
