<?xml version="1.0" encoding="UTF-8" standalone="no"?>
<!-- Created with Inkscape (http://www.inkscape.org/) -->

<svg
   xmlns:dc="http://purl.org/dc/elements/1.1/"
   xmlns:cc="http://creativecommons.org/ns#"
   xmlns:rdf="http://www.w3.org/1999/02/22-rdf-syntax-ns#"
   xmlns:svg="http://www.w3.org/2000/svg"
   xmlns="http://www.w3.org/2000/svg"
   xmlns:sodipodi="http://sodipodi.sourceforge.net/DTD/sodipodi-0.dtd"
   xmlns:inkscape="http://www.inkscape.org/namespaces/inkscape"
   width="250.1747"
   height="335.79288"
   viewBox="0 0 250.17471 335.79287"
   id="svg2"
   version="1.1"
   inkscape:version="0.48.4 r9939"
   sodipodi:docname="CynaraIconTextBelow.svg"
   inkscape:export-filename="D:\Development\Cynara\Pictures\CynaraIconTextBelow.png"
   inkscape:export-xdpi="90"
   inkscape:export-ydpi="90">
  <title
     id="title4194">Cynara</title>
  <sodipodi:namedview
     id="base"
     pagecolor="#ffffff"
     bordercolor="#666666"
     borderopacity="1.0"
     inkscape:pageopacity="0.0"
     inkscape:pageshadow="2"
     inkscape:zoom="2"
     inkscape:cx="15.1884"
     inkscape:cy="122.79847"
     inkscape:document-units="px"
     inkscape:current-layer="layer1"
     showgrid="true"
     inkscape:window-width="1366"
     inkscape:window-height="711"
     inkscape:window-x="0"
     inkscape:window-y="22"
     inkscape:window-maximized="1"
     inkscape:object-paths="false"
     inkscape:showpageshadow="false"
     fit-margin-top="0"
     fit-margin-left="0"
     fit-margin-right="0"
     fit-margin-bottom="0">
    <inkscape:grid
       id="grid4136"
       type="xygrid"
       empspacing="10"
       snapvisiblegridlinesonly="true"
       originx="-5.4252578px"
       originy="85.791997px"
       visible="true"
       enabled="true" />
  </sodipodi:namedview>
  <defs
     id="defs4" />
  <metadata
     id="metadata7">
    <rdf:RDF>
      <cc:Work
         rdf:about="">
        <dc:format>image/svg+xml</dc:format>
        <dc:type
           rdf:resource="http://purl.org/dc/dcmitype/StillImage" />
        <dc:title>Cynara</dc:title>
        <dc:date>29/02/2016</dc:date>
        <dc:creator>
          <cc:Agent>
            <dc:title>Mathias Spiessens</dc:title>
          </cc:Agent>
        </dc:creator>
        <dc:rights>
          <cc:Agent>
            <dc:title>Cynara Krewe</dc:title>
          </cc:Agent>
        </dc:rights>
        <dc:publisher>
          <cc:Agent>
            <dc:title>Cynara Krewe</dc:title>
          </cc:Agent>
        </dc:publisher>
        <dc:contributor>
          <cc:Agent>
            <dc:title>Sander van Schaick</dc:title>
          </cc:Agent>
        </dc:contributor>
      </cc:Work>
    </rdf:RDF>
  </metadata>
  <g
     id="layer1"
     inkscape:groupmode="layer"
     inkscape:label="Layer 1"
     transform="translate(-5.4252576,-802.36134)">
    <path
       style="fill:#000000;fill-opacity:1;stroke:none"
       d="m 52.93307,802.36133 c -26.318732,0 -47.5078124,21.18908 -47.5078124,47.50781 l 0,154.98636 c 0,26.3187 21.1890804,47.5058 47.5078124,47.5058 l 154.98633,0 c 26.31873,0 47.50586,-21.1871 47.50586,-47.5058 l 0,-154.98636 c 0,-26.31873 -21.18713,-47.50781 -47.50586,-47.50781 l -154.98633,0 z m 77.40429,38.375 c 2.58616,0 24.75728,14.37603 33.88086,21.96875 2.78654,2.31898 3.13706,2.85295 5.04102,7.72265 1.1251,2.87764 2.04492,5.47398 2.04492,5.76758 0,0.29361 -2.75625,1.91364 -6.125,3.60157 -12.83446,6.43079 -30.4487,16.86651 -32.36523,19.17578 -0.36462,0.43935 -1.03125,1.93246 -1.48242,3.3164 l -0.82032,2.51563 -0.64648,-2.51953 c -0.73695,-2.87541 -2.17678,-4.3468 -7.76367,-7.93164 -4.09053,-2.6247 -17.16369,-9.96095 -26.394532,-14.81055 l -6.347657,-3.33399 0.65625,-1.86523 c 2.632656,-7.46174 3.793649,-9.46378 6.91211,-11.92773 10.636279,-8.40391 31.095439,-21.67969 33.410149,-21.67969 z m 91.57813,2.57226 c 0.0724,-0.0117 0.1181,-0.0108 0.13477,0.006 0.1045,0.10449 -0.94116,1.98689 -2.32227,4.18164 -3.40335,5.40836 -6.92383,12.63258 -6.92383,14.20703 0,0.70935 0.74916,3.2015 1.66602,5.53711 2.08968,5.32321 5.99627,17.00283 5.75976,17.22071 -0.0973,0.0896 -2.28664,1.44047 -4.86718,3 -14.56876,8.80452 -17.54731,11.71281 -17.55664,17.15039 -0.003,1.64303 -0.98738,2.36874 -1.01758,0.75 -0.009,-0.48125 -0.45708,-2.1125 -0.99414,-3.625 -0.53706,-1.5125 -1.78081,-7.55827 -2.76368,-13.43555 -0.98287,-5.87728 -2.23855,-11.8945 -2.79101,-13.37109 -1.55849,-4.16543 -3.70288,-5.07835 -7.94531,-3.38086 -1.11697,0.44692 -2.11796,0.72579 -2.22266,0.62109 -0.10469,-0.10469 -0.0638,-2.0225 0.0898,-4.26367 l 0.2793,-4.07617 4.30664,-2.56836 c 6.6479,-3.96388 34.92238,-17.59018 37.16797,-17.95313 z m -182.874998,0.1211 c 1.815963,0.19794 23.872135,10.60214 33.648438,15.90429 7.952436,4.31299 8.115234,4.49631 8.115234,9.12891 0,2.07563 -0.08553,3.77344 -0.189453,3.77344 -0.103916,0 -0.997123,-0.3375 -1.984375,-0.75 -4.144634,-1.73174 -6.648487,-0.40503 -8.033203,4.25781 -0.429273,1.44552 -1.477078,6.92939 -2.330079,12.18555 -0.852998,5.25616 -2.088584,11.35664 -2.74414,13.55664 -0.655556,2.2 -1.383081,4.7875 -1.617188,5.75 -0.391663,1.61027 -0.452458,1.4582 -0.769531,-1.90625 -0.189523,-2.01102 -0.663398,-4.41975 -1.052734,-5.35156 -0.840947,-2.01267 -6.029607,-5.99919 -15.113281,-11.61329 -4.106922,-2.53826 -6.166016,-4.10578 -6.166016,-4.6914 0,-0.48366 1.492551,-4.99813 3.316406,-10.03321 1.823854,-5.03508 3.420249,-10.10791 3.548828,-11.27343 0.280523,-2.54282 -1.328714,-6.28161 -5.941406,-13.79297 -1.658941,-2.70144 -2.919326,-5.01036 -2.798828,-5.13086 0.01537,-0.0154 0.05275,-0.0201 0.111328,-0.0137 z m 145.832028,32.86523 c 0.0956,-0.009 0.15826,0.002 0.1875,0.0312 0.27692,0.27692 2.11683,10.09887 3.02734,16.16016 0.45441,3.025 1.35249,7.1875 1.99415,9.25 0.64165,2.0625 1.63508,6.1125 2.20898,9 1.14033,5.73745 3.75084,23.6404 4.27344,29.30859 l 0.32812,3.55664 -4.68359,2.52539 c -6.2527,3.37074 -7.14574,4.32872 -7.92188,8.49805 -0.99802,5.36124 -1.09268,5.40484 -2.66601,1.19727 -1.11949,-2.99388 -1.9973,-4.3874 -4,-6.34766 -4.74559,-4.64504 -29.74642,-20.48809 -39.43164,-24.98828 -3.00678,-1.39708 -4.39078,-2.3215 -4.58985,-3.06641 -0.27883,-1.04332 1.01064,-9.14607 2.50782,-15.75586 0.72285,-3.19129 0.86491,-3.40012 3.59961,-5.30664 8.28885,-5.77865 42.20382,-23.79297 45.16601,-24.0625 z m -108.255856,0.0859 c 0.6276,-0.2092 21.411036,10.24954 30.937496,15.56836 3.85,2.14953 9.16815,5.33757 11.81836,7.08594 l 4.81836,3.17968 0.83984,3.42383 c 0.46151,1.88323 1.35034,6.3565 1.97657,9.93945 l 1.13867,6.51368 -1.79492,0.61718 c -6.27513,2.15541 -34.328013,19.29504 -42.458986,25.94141 -2.264835,1.85131 -3.865845,4.55373 -5.308593,8.96094 -0.472627,1.44375 -0.914375,2.625 -0.980469,2.625 -0.0661,0 -0.382963,-1.69566 -0.705078,-3.76758 -0.933551,-6.00483 -1.751748,-7.01467 -8.398438,-10.38281 l -2.539062,-1.28711 -0.314453,-5.88281 c -0.261543,-4.88032 -0.09913,-7.33618 0.955078,-14.40625 1.562436,-10.47848 3.488938,-20.14074 4.5,-22.56055 0.417442,-0.99908 1.531898,-6.463 2.476562,-12.14063 1.905526,-11.45261 2.296502,-13.18021 3.039063,-13.42773 z m 161.902346,3.85547 c 0.14229,0 -1.03743,1.85625 -2.6211,4.125 -4.40045,6.30404 -7.47791,11.42139 -8.35351,13.89062 -0.64102,1.8077 -0.69525,2.80722 -0.28516,5.23438 0.55311,3.27371 1.9347,18.10774 2.15625,23.15039 l 0.13867,3.15234 -2.25,0.95899 c -1.2375,0.52797 -6.525,2.74156 -11.75,4.91992 -5.225,2.17837 -10.33083,4.32112 -11.3457,4.75976 l -1.8457,0.79688 -0.4043,-2.36914 c -0.9513,-5.56821 0.52673,-34.08833 1.90234,-36.70899 0.64197,-1.22302 7.63672,-6.12203 15.86524,-11.11132 7.68954,-4.66247 18.36879,-10.79883 18.79297,-10.79883 z m -215.378909,0.62695 c 2.305714,0.33966 28.656032,16.43535 32.732422,20.05664 1.371624,1.21849 1.423209,1.49874 2.695313,14.56641 0.209536,2.15246 1.729434,24.82736 1.734375,25.875 0.0032,0.67959 -1.189254,0.30113 -6.248047,-1.98438 -2.75,-1.24242 -8.820513,-3.81597 -13.490234,-5.71679 -4.66972,-1.90082 -8.681592,-3.64449 -8.914063,-3.87696 -0.440656,-0.44066 0.101187,-8.59252 1.486328,-22.39453 l 0.8125,-8.09765 -1.416015,-2.90235 c -0.778486,-1.5963 -3.292098,-5.69069 -5.585938,-9.09761 -2.293839,-3.40692 -4.072736,-6.2925 -3.953125,-6.41211 0.02278,-0.0228 0.07211,-0.0266 0.146484,-0.0156 z m 107.044919,45.81055 2.94922,1.24023 c 8.10188,3.41004 37.48332,21.61051 41.00781,25.40235 1.50541,1.6196 2.74565,4.98755 5.33985,14.49804 3.77034,13.82231 6.31604,26.5214 6.32031,31.5293 0.001,1.81769 0.22304,2.47599 0.96875,2.87509 1.47338,0.7884 2.7824,0.623 3.7793,-0.4786 1.2593,-1.3915 0.79958,-6.60533 -1.58008,-17.91993 -1.02202,-4.85943 -1.80986,-9.84648 -1.75196,-11.08398 0.0579,-1.2375 0.67296,-5.9625 1.36719,-10.5 1.06645,-6.97045 1.43321,-8.39861 2.36524,-9.20508 1.62063,-1.40229 14.65119,-7.54888 26.10351,-12.31445 12.34679,-5.13778 28.43434,-11.46215 28.63867,-11.25782 0.0835,0.0835 -2.35035,3.27411 -5.41015,7.08985 -3.05979,3.81574 -6.36335,8.2875 -7.33985,9.9375 -1.74549,2.94938 -1.77638,3.10125 -1.875,9 -0.36436,21.79229 -10.85517,45.46501 -22.83789,51.53711 -5.64127,2.8587 -19.17845,4.7764 -43.92578,6.2246 -12.15237,0.7111 -52.03188,1.0028 -64.999996,0.4747 -19.86192,-0.8089 -37.718462,-2.8253 -43.722656,-4.9356 -9.709576,-3.4127 -17.84737,-15.07655 -22.542969,-32.31253 -2.119038,-7.77827 -2.813019,-12.16653 -3.160156,-20.00195 l -0.332032,-7.51172 -2.83789,-4.23828 c -1.56036,-2.33072 -4.855104,-6.71133 -7.322266,-9.73633 -2.467162,-3.025 -4.432919,-5.55562 -4.369141,-5.62305 0.176848,-0.18697 20.453236,7.81511 29.996094,11.83789 9.763597,4.11582 19.402632,8.58254 23.128906,10.71875 l 2.589844,1.48438 0.769532,4.29101 c 1.659599,9.25178 3.743221,27.0087 4.582031,39.04102 0.182125,2.6125 0.55965,5.03121 0.83789,5.37501 0.88959,1.099 3.2794,0.7449 4.171875,-0.6172 0.7287,-1.1122 0.75205,-2.03384 0.22461,-8.875 -0.32371,-4.19869 -0.86436,-10.04647 -1.203125,-12.99609 l -0.617188,-5.36328 2.105469,-7.38672 c 3.45902,-12.13932 3.731383,-12.6956 7.601562,-15.55274 9.235161,-6.81781 26.618596,-17.56904 35.416016,-21.90429 l 5.56445,-2.74219 z"
       id="rect4145"
       inkscape:connector-curvature="0" />
    <g
       style="stroke-width:0.5;stroke-miterlimit:4;stroke-dasharray:none"
       transform="matrix(10,0,0,10,119.99996,-9585.9161)"
       id="g4169">
      <g
         id="g4223">
        <g
           id="g4228">
          <g
             id="g4271" />
        </g>
      </g>
    </g>
    <g
       transform="translate(120,-94)"
       id="g4214" />
    <g
       transform="matrix(1.0013995,0,0,1,6.6982322,777.19251)"
       style="font-size:100.00000762999999893px;font-style:normal;font-weight:normal;line-height:125%;letter-spacing:0px;word-spacing:0px;fill:#000000;fill-opacity:1;stroke:none;font-family:Sans"
       id="flowRoot2990">
      <path
         d="m 26.28725,346.42971 c -4.088028,0 -7.812024,-0.672 -11.172,-2.016 -3.360018,-1.344 -6.2440148,-3.30399 -8.652,-5.88 -2.40801,-2.57599 -4.2840081,-5.73998 -5.628,-9.492 -1.28800552,-3.80798 -1.9320049,-8.14797 -1.932,-13.02 -4.9e-6,-4.87196 0.7279944,-9.18396 2.184,-12.936 1.5119914,-3.80795 3.5279894,-6.99995 6.048,-9.576 2.5199844,-2.57594 5.459981,-4.53594 8.82,-5.88 3.359975,-1.34394 6.943971,-2.01594 10.752,-2.016 2.407965,6e-5 4.563963,0.16806 6.468,0.504 1.959959,0.33606 3.639957,0.72806 5.04,1.176 1.455954,0.44806 2.631953,0.89606 3.528,1.344 0.895951,0.44806 1.511951,0.78406 1.848,1.008 l -2.352,6.72 c -0.504047,-0.33595 -1.232046,-0.69995 -2.184,-1.092 -0.952044,-0.39195 -2.044043,-0.78395 -3.276,-1.176 -1.176041,-0.39195 -2.492039,-0.69995 -3.948,-0.924 -1.400036,-0.27994 -2.828035,-0.41994 -4.284,-0.42 -3.08003,6e-5 -5.852028,0.53205 -8.316,1.596 -2.464023,1.06405 -4.564021,2.60405 -6.3,4.62 -1.736017,2.01605 -3.0800158,4.48004 -4.032,7.392 -0.896014,2.85604 -1.3440135,6.07604 -1.344,9.66 -1.35e-5,3.47203 0.3919861,6.63603 1.176,9.492 0.8399845,2.85602 2.071983,5.32002 3.696,7.392 1.62398,2.01601 3.639978,3.58401 6.048,4.704 2.463973,1.12001 5.31997,1.68001 8.568,1.68 3.751963,10e-6 6.85996,-0.39199 9.324,-1.176 2.463955,-0.78399 4.311953,-1.48399 5.544,-2.1 l 2.1,6.72 c -0.39205,0.28 -1.092049,0.644 -2.1,1.092 -1.008047,0.392 -2.268046,0.784 -3.78,1.176 -1.512043,0.392 -3.276041,0.728 -5.292,1.008 -2.016037,0.28 -4.200035,0.42 -6.552,0.42"
         style="font-size:84px;font-variant:normal;font-stretch:normal;fill:#000000;font-family:Ubuntu;-inkscape-font-specification:Ubuntu;fill-opacity:1"
         id="path2995" />
      <path
         d="m 46.322562,353.31771 c 0.615998,0.27999 1.399998,0.53199 2.352,0.756 1.007996,0.27999 1.987995,0.41999 2.94,0.42 3.079991,-1e-5 5.487988,-0.70001 7.224001,-2.1 1.735984,-1.344 3.303982,-3.556 4.704,-6.636 -3.528016,-6.71999 -6.832012,-13.83198 -9.912001,-21.336 -3.024005,-7.55997 -5.544003,-15.20396 -7.56,-22.932 l 8.4,0 c 0.61599,2.52004 1.343989,5.23604 2.184,8.148 0.895988,2.91204 1.875987,5.90803 2.94,8.988 1.063985,3.08003 2.211983,6.16002 3.444,9.24 1.231981,3.08002 2.51998,6.04801 3.864001,8.904 2.127975,-5.87998 3.975973,-11.70398 5.543999,-17.472 1.567971,-5.76797 3.05197,-11.70396 4.452,-17.808 l 8.064001,0 c -2.016039,8.23204 -4.256036,16.15603 -6.72,23.772 -2.464032,7.56002 -5.124029,14.64401 -7.98,21.252 -1.120025,2.52 -2.296024,4.676 -3.528,6.468 -1.176021,1.84799 -2.49202,3.35999 -3.948,4.536 -1.456017,1.17599 -3.108015,2.04399 -4.956001,2.604 -1.792011,0.55999 -3.836009,0.83999 -6.131999,0.84 -0.616007,-10e-6 -1.260006,-0.056 -1.932001,-0.168 -0.672004,-0.056 -1.344003,-0.16801 -2.016,-0.336 -0.616002,-0.11201 -1.204001,-0.25201 -1.764,-0.42 -0.504,-0.16801 -0.868,-0.30801 -1.092,-0.42 l 1.428,-6.3"
         style="font-size:84px;font-variant:normal;font-stretch:normal;fill:#000000;font-family:Ubuntu;-inkscape-font-specification:Ubuntu;fill-opacity:1"
         id="path2997" />
      <path
         d="m 93.118437,302.74971 c 1.791992,-0.44795 4.17199,-0.92395 7.140003,-1.428 2.96798,-0.50395 6.38398,-0.75595 10.248,-0.756 3.47197,5e-5 6.35597,0.50405 8.652,1.512 2.29596,0.95204 4.11596,2.32404 5.46,4.116 1.39996,1.73604 2.37996,3.83604 2.94,6.3 0.55996,2.46403 0.83996,5.18003 0.84,8.148 l 0,24.528 -7.812,0 0,-22.848 c -4e-5,-2.68797 -0.19604,-4.98397 -0.588,-6.888 -0.33604,-1.90397 -0.92404,-3.44396 -1.764,-4.62 -0.84003,-1.17596 -1.96003,-2.01596 -3.36,-2.52 -1.40003,-0.55996 -3.13603,-0.83996 -5.208,-0.84 -0.84002,4e-5 -1.70802,0.028 -2.604,0.084 -0.89602,0.056 -1.76402,0.14004 -2.604,0.252 -0.78402,0.056 -1.51202,0.14004 -2.184,0.252 -0.61602,0.11204 -1.06402,0.19604 -1.344,0.252 l 0,36.876 -7.812003,0 0,-42.42"
         style="font-size:84px;font-variant:normal;font-stretch:normal;fill:#000000;font-family:Ubuntu;-inkscape-font-specification:Ubuntu;fill-opacity:1"
         id="path2999" />
      <path
         d="m 156.13681,339.54171 c 1.84798,10e-6 3.47198,-0.028 4.872,-0.084 1.45597,-0.11199 2.65997,-0.27999 3.612,-0.504 l 0,-13.02 c -0.56003,-0.27998 -1.48403,-0.50398 -2.772,-0.672 -1.23202,-0.22398 -2.74402,-0.33598 -4.536,-0.336 -1.17602,2e-5 -2.43602,0.084 -3.78,0.252 -1.28802,0.16802 -2.49201,0.53202 -3.612,1.092 -1.06401,0.50402 -1.96001,1.23202 -2.688,2.184 -0.72801,0.89602 -1.09201,2.10002 -1.092,3.612 -10e-6,2.80001 0.89599,4.76001 2.688,5.88 1.79199,1.06401 4.22798,1.59601 7.308,1.596 m -0.672,-39.144 c 3.13598,5e-5 5.76798,0.42005 7.896,1.26 2.18397,0.78405 3.91997,1.93204 5.208,3.444 1.34397,1.45604 2.29597,3.22004 2.856,5.292 0.55997,2.01604 0.83996,4.25603 0.84,6.72 l 0,27.3 c -0.67203,0.112 -1.62403,0.28 -2.856,0.504 -1.17603,0.168 -2.52003,0.336 -4.032,0.504 -1.51203,0.168 -3.16403,0.308 -4.956,0.42 -1.73602,0.168 -3.47202,0.252 -5.208,0.252 -2.46402,0 -4.73201,-0.252 -6.804,-0.756 -2.07201,-0.504 -3.86401,-1.288 -5.376,-2.352 -1.512,-1.11999 -2.688,-2.57599 -3.528,-4.368 -0.84,-1.79199 -1.26,-3.94799 -1.26,-6.468 0,-2.40798 0.476,-4.47998 1.428,-6.216 1.008,-1.73598 2.352,-3.13597 4.032,-4.2 1.67999,-1.06397 3.63999,-1.84797 5.88,-2.352 2.23999,-0.50397 4.59198,-0.75597 7.056,-0.756 0.78398,3e-5 1.59598,0.056 2.436,0.168 0.83998,0.056 1.62398,0.16803 2.352,0.336 0.78397,0.11203 1.45597,0.22403 2.016,0.336 0.55997,0.11203 0.95197,0.19603 1.176,0.252 l 0,-2.184 c -3e-5,-1.28797 -0.14003,-2.54797 -0.42,-3.78 -0.28003,-1.28796 -0.78403,-2.40796 -1.512,-3.36 -0.72802,-1.00796 -1.73602,-1.79196 -3.024,-2.352 -1.23202,-0.61596 -2.85602,-0.92396 -4.872,-0.924 -2.57602,4e-5 -4.84401,0.19604 -6.804,0.588 -1.90401,0.33604 -3.33201,0.70004 -4.284,1.092 l -0.924,-6.468 c 1.00799,-0.44795 2.68799,-0.86795 5.04,-1.26 2.35199,-0.44795 4.89998,-0.67195 7.644,-0.672"
         style="font-size:84px;font-variant:normal;font-stretch:normal;fill:#000000;font-family:Ubuntu;-inkscape-font-specification:Ubuntu;fill-opacity:1"
         id="path3001" />
      <path
         d="m 201.2855,300.56571 c 0.67198,5e-5 1.42798,0.056 2.268,0.168 0.89597,0.0561 1.76397,0.16805 2.604,0.336 0.83997,0.11205 1.59597,0.25205 2.268,0.42 0.72797,0.11205 1.25997,0.22405 1.596,0.336 l -1.344,6.804 c -0.61603,-0.22396 -1.65203,-0.47596 -3.108,-0.756 -1.40003,-0.33596 -3.22002,-0.50396 -5.46,-0.504 -1.45602,4e-5 -2.91202,0.16804 -4.368,0.504 -1.40002,0.28004 -2.32401,0.47604 -2.772,0.588 l 0,36.708 -7.812,0 0,-41.832 c 1.84799,-0.67195 4.14399,-1.28795 6.888,-1.848 2.74398,-0.61595 5.82398,-0.92395 9.24,-0.924"
         style="font-size:84px;font-variant:normal;font-stretch:normal;fill:#000000;font-family:Ubuntu;-inkscape-font-specification:Ubuntu;fill-opacity:1"
         id="path3003" />
      <path
         d="m 232.42587,339.54171 c 1.84798,10e-6 3.47198,-0.028 4.872,-0.084 1.45598,-0.11199 2.65998,-0.27999 3.612,-0.504 l 0,-13.02 c -0.56002,-0.27998 -1.48402,-0.50398 -2.772,-0.672 -1.23202,-0.22398 -2.74402,-0.33598 -4.536,-0.336 -1.17602,2e-5 -2.43602,0.084 -3.78,0.252 -1.28801,0.16802 -2.49201,0.53202 -3.612,1.092 -1.06401,0.50402 -1.96001,1.23202 -2.688,2.184 -0.72801,0.89602 -1.09201,2.10002 -1.092,3.612 -1e-5,2.80001 0.89599,4.76001 2.688,5.88 1.79199,1.06401 4.22799,1.59601 7.308,1.596 m -0.672,-39.144 c 3.13598,5e-5 5.76798,0.42005 7.896,1.26 2.18397,0.78405 3.91997,1.93204 5.208,3.444 1.34397,1.45604 2.29597,3.22004 2.856,5.292 0.55997,2.01604 0.83997,4.25603 0.84,6.72 l 0,27.3 c -0.67203,0.112 -1.62403,0.28 -2.856,0.504 -1.17603,0.168 -2.52003,0.336 -4.032,0.504 -1.51202,0.168 -3.16402,0.308 -4.956,0.42 -1.73602,0.168 -3.47202,0.252 -5.208,0.252 -2.46401,0 -4.73201,-0.252 -6.804,-0.756 -2.07201,-0.504 -3.864,-1.288 -5.376,-2.352 -1.512,-1.11999 -2.688,-2.57599 -3.52799,-4.368 -0.84001,-1.79199 -1.26001,-3.94799 -1.26001,-6.468 0,-2.40798 0.476,-4.47998 1.428,-6.216 1.008,-1.73598 2.352,-3.13597 4.032,-4.2 1.67999,-1.06397 3.63999,-1.84797 5.88,-2.352 2.23999,-0.50397 4.59199,-0.75597 7.056,-0.756 0.78398,3e-5 1.59598,0.056 2.436,0.168 0.83998,0.056 1.62398,0.16803 2.352,0.336 0.78398,0.11203 1.45598,0.22403 2.016,0.336 0.55998,0.11203 0.95198,0.19603 1.176,0.252 l 0,-2.184 c -2e-5,-1.28797 -0.14002,-2.54797 -0.42,-3.78 -0.28002,-1.28796 -0.78402,-2.40796 -1.512,-3.36 -0.72802,-1.00796 -1.73602,-1.79196 -3.024,-2.352 -1.23202,-0.61596 -2.85602,-0.92396 -4.872,-0.924 -2.57601,4e-5 -4.84401,0.19604 -6.804,0.588 -1.90401,0.33604 -3.33201,0.70004 -4.284,1.092 l -0.924,-6.468 c 1.008,-0.44795 2.68799,-0.86795 5.04,-1.26 2.35199,-0.44795 4.89999,-0.67195 7.644,-0.672"
         style="font-size:84px;font-variant:normal;font-stretch:normal;fill:#000000;font-family:Ubuntu;-inkscape-font-specification:Ubuntu;fill-opacity:1"
         id="path3005" />
    </g>
  </g>
</svg>
